<svg height="242.666992pt" viewBox="0 0 167.0869141 242.6669922" width="167.086914pt" xmlns="http://www.w3.org/2000/svg"><path d="m166.8369141 235.5478516c0 3.7773438-3.0869141 6.8691406-6.8710938 6.8691406h-152.8549805c-3.7749023 0-6.8608398-3.0917969-6.8608398-6.8691406v-228.4277344c0-3.7773438 3.0859375-6.8701172 6.8608398-6.8701172h152.8549805c3.7841797 0 6.8710938 3.0927734 6.8710938 6.8701172z" fill="#fff" stroke="#000" stroke-width=".5"/><text fill="#df0000" font-family="Bitstream Vera Sans" font-size="32" letter-spacing="0" word-spacing="0" x="3.944632" y="27.355848"><tspan fill="#df0000" font-family="LMMathSymbols9" font-style="italic" font-weight="bold" x="3.944632" y="27.355848">J</tspan></text><path d="m7.989 3.103c-.242-4.057-7.747-11.693-7.989-13.603-.242 1.909-7.747 9.545-7.989 13.603-.169 2.868 1.695 4.057 3.39 4.057 1.8351685-.021581 3.3508701-2.8006944 3.873-3.341.242.716-1.603 6.682-2.179 6.682h5.811c-.576-0-2.421-5.966-2.179-6.682.4571472.4962961 1.7971276 3.2578295 3.874 3.341 1.694-.001 3.557-1.189 3.388-4.057z" transform="matrix(2.2711763 2.2711763 -2.0765626 2.0765626 117.0668 94.436511)"/><text fill="#df0000" font-family="Bitstream Vera Sans" font-size="32" letter-spacing="0" word-spacing="0" x="4.273351" y="49.051323"><tspan fill="#df0000" font-family="URW Chancery L" font-size="38.400002" font-style="italic" font-weight="bold" x="4.273351" y="49.051323">o</tspan></text><text fill="#df0000" font-family="Bitstream Vera Sans" font-size="32" letter-spacing="0" word-spacing="0" x="2.629755" y="76.992462"><tspan fill="#df0000" font-family="URW Chancery L" font-size="38.400002" font-style="italic" font-weight="bold" x="2.629755" y="76.992462">k</tspan></text><text fill="#df0000" font-family="Bitstream Vera Sans" font-size="32" letter-spacing="0" word-spacing="0" x="2.629755" y="99.345383"><tspan fill="#df0000" font-family="URW Chancery L" font-size="38.400002" font-style="italic" font-weight="bold" x="2.629755" y="99.345383">e</tspan></text><text fill="#df0000" font-family="Bitstream Vera Sans" font-size="32" letter-spacing="0" word-spacing="0" x="2.301036" y="120.3834"><tspan fill="#df0000" font-family="URW Chancery L" font-size="38.400002" font-style="italic" font-weight="bold" x="2.301036" y="120.3834">r</tspan></text><path d="m3.676-9c-3.243 0-3.676 3.477-3.676 3.477s-.433-3.477-3.676-3.477c-2.27 0-4.324 1.559-4.324 4.5 0 3.886 6.5791507 7.7938141 8 13.5 1.35201-5.7014031 8-9.614 8-13.5 0-2.941-2.054-4.5-4.324-4.5z" fill="#df0000" transform="matrix(2.374378 -2.374378 2.2221918 2.2221918 59.383523 95.635421)"/><path d="m50.291466 22.698228s2.375-1.9 2.375-4.534c0-1.542-1.369-4.102-4.534-4.102s-4.534 2.561-4.534 4.102c0 2.634 2.375 4.534 2.375 4.534-2.638-2.055-7.341-.652-7.341 3.455 0 2.056 1.68 4.318 4.318 4.318 3.165 0 4.534-3.455 4.534-3.455s.402 3.938-1.943 6.046h5.182c-2.345-2.107-1.943-6.046-1.943-6.046s1.369 3.455 4.534 3.455c2.639 0 4.318-2.263 4.318-4.318 0-4.107-4.703-5.51-7.341-3.455z" transform="matrix(-2.145754 -2.145754 2.145754 -2.145754 110.19878 305.77847)"/><g fill="#df0000"><path d="m3.2433274-4.7253274c-2.117-2.864-3.2433274-5.7746726-3.2433274-5.7746726s-1.1263274 2.9106726-3.2433274 5.7746726c-2.118 2.863-4.7566726 4.7253274-4.7566726 4.7253274s2.6386726 1.8613274 4.7566726 4.7263274c2.117 2.863 3.2433274 5.7736726 3.2433274 5.7736726s1.1263274-2.9106726 3.2433274-5.7736726c2.118-2.865 4.7566726-4.7263274 4.7566726-4.7263274s-2.6386726-1.8623274-4.7566726-4.7253274z" transform="matrix(2.235014 -2.235014 2.235014 2.235014 117.78936 156.16707)"/><text font-family="Bitstream Vera Sans" font-size="32" letter-spacing="0" transform="scale(-1)" word-spacing="0" x="-163.71599" y="-215.00195"><tspan fill="#df0000" font-family="LMMathSymbols9" font-style="italic" font-weight="bold" x="-163.71599" y="-215.00195">J</tspan></text><text font-family="Bitstream Vera Sans" font-size="32" letter-spacing="0" transform="scale(-1)" word-spacing="0" x="-163.38727" y="-193.30647"><tspan fill="#df0000" font-family="URW Chancery L" font-size="38.400002" font-style="italic" font-weight="bold" x="-163.38727" y="-193.30647">o</tspan></text><text font-family="Bitstream Vera Sans" font-size="32" letter-spacing="0" transform="scale(-1)" word-spacing="0" x="-165.03085" y="-165.36533"><tspan fill="#df0000" font-family="URW Chancery L" font-size="38.400002" font-style="italic" font-weight="bold" x="-165.03085" y="-165.36533">k</tspan></text><text font-family="Bitstream Vera Sans" font-size="32" letter-spacing="0" transform="scale(-1)" word-spacing="0" x="-165.03085" y="-143.01241"><tspan fill="#df0000" font-family="URW Chancery L" font-size="38.400002" font-style="italic" font-weight="bold" x="-165.03085" y="-143.01241">e</tspan></text><text font-family="Bitstream Vera Sans" font-size="32" letter-spacing="0" transform="scale(-1)" word-spacing="0" x="-165.35957" y="-121.97439"><tspan fill="#df0000" font-family="URW Chancery L" font-size="38.400002" font-style="italic" font-weight="bold" x="-165.35957" y="-121.97439">r</tspan></text></g></svg>